<?xml version="1.0" encoding="iso-8859-1"?>
<!-- Generator: Adobe Illustrator 17.1.0, SVG Export Plug-In . SVG Version: 6.00 Build 0)  -->
<!DOCTYPE svg PUBLIC "-//W3C//DTD SVG 1.1//EN" "http://www.w3.org/Graphics/SVG/1.1/DTD/svg11.dtd">
<svg version="1.1" id="Capa_1" xmlns="http://www.w3.org/2000/svg" xmlns:xlink="http://www.w3.org/1999/xlink" x="0px" y="0px"
	 viewBox="0 0 300.423 300.423" style="enable-background:new 0 0 300.423 300.423;" xml:space="preserve">
<g>
	<path d="M176.808,90.986c1.705,0.461,3.382,1.025,5.02,1.69c5.364-5.659,12.195-9.823,19.703-11.998
		c0.058-0.231,0.118-0.462,0.18-0.69c1.695-6.275,4.723-11.921,8.716-16.68c-5.659-2.388-11.876-3.715-18.404-3.715
		c-9.484,0-18.311,2.798-25.721,7.597c-7.943-15.035-23.727-25.286-41.915-25.286c-5.893,0-11.529,1.084-16.734,3.05
		C105.281,25.26,88.528,9.994,68.195,9.994c-21.955,0-39.754,17.798-39.754,39.754c0,2.015,0.152,3.993,0.442,5.927
		C12.615,57.62,0,71.647,0,88.44c0,4.078,0.75,7.771,2.11,11.771h135.051c7.705-7,17.619-10.557,28.217-10.557
		C169.222,89.655,173.066,89.975,176.808,90.986z"/>
	<path d="M279.16,107.274c-0.495-0.134-0.986-0.252-1.477-0.356l-7.476-1.591l1.73-7.443c3.522-15.146-5.482-30.187-20.498-34.243
		c-2.466-0.666-4.995-1.004-7.519-1.004c-12.945,0-24.349,8.743-27.73,21.261c-0.341,1.265-0.6,2.592-0.769,3.942l-0.7,5.594
		l-5.568,0.882c-7.716,1.224-14.691,5.594-19.137,11.991l-3.975,5.722l-5.998-3.544c-2.247-1.327-4.653-2.343-7.15-3.018
		c-2.463-0.666-4.992-1.003-7.516-1.003c-12.947,0-24.351,8.836-27.732,21.354c-1.359,5.035-1.313,10.395,0.089,15.395h162.044
		c1.49-7,0.377-14.205-3.19-20.412C292.763,114.141,286.573,109.276,279.16,107.274z"/>
	<path d="M39.797,143.717c0-12.177-14.67-29.489-14.67-29.489s-14.674,17.313-14.674,29.489c0,8.103,6.569,14.672,14.674,14.672
		C33.228,158.389,39.797,151.82,39.797,143.717z"/>
	<path d="M51.135,143.717c0,8.103,6.567,14.672,14.668,14.672c8.105,0,14.674-6.569,14.674-14.672
		c0-12.177-14.674-29.489-14.674-29.489S51.135,131.54,51.135,143.717z"/>
	<path d="M91.813,143.717c0,8.103,6.569,14.672,14.67,14.672c8.103,0,14.672-6.569,14.672-14.672
		c0-12.177-14.672-29.489-14.672-29.489S91.813,131.54,91.813,143.717z"/>
	<path d="M80.477,231.744c0-12.178-14.674-29.49-14.674-29.49s-14.668,17.313-14.668,29.49c0,8.102,6.567,14.672,14.668,14.672
		C73.907,246.416,80.477,239.846,80.477,231.744z"/>
	<path d="M121.154,231.744c0-12.178-14.672-29.49-14.672-29.49s-14.67,17.313-14.67,29.49c0,8.102,6.569,14.672,14.67,14.672
		C114.585,246.416,121.154,239.846,121.154,231.744z"/>
	<path d="M161.834,231.744c0-12.178-14.672-29.49-14.672-29.49s-14.672,17.313-14.672,29.49c0,8.102,6.569,14.672,14.672,14.672
		C155.263,246.416,161.834,239.846,161.834,231.744z"/>
	<path d="M60.021,187.731c0-12.177-14.67-29.49-14.67-29.49s-14.67,17.314-14.67,29.49c0,8.104,6.565,14.671,14.67,14.671
		C53.452,202.402,60.021,195.834,60.021,187.731z"/>
	<path d="M71.361,187.731c0,8.104,6.565,14.671,14.668,14.671c8.103,0,14.672-6.567,14.672-14.671
		c0-12.177-14.672-29.49-14.672-29.49S71.361,175.554,71.361,187.731z"/>
	<path d="M126.707,202.402c8.104,0,14.672-6.567,14.672-14.671c0-12.177-14.672-29.49-14.672-29.49s-14.67,17.314-14.67,29.49
		C112.037,195.834,118.606,202.402,126.707,202.402z"/>
	<path d="M71.361,275.756c0,8.104,6.565,14.672,14.668,14.672c8.103,0,14.672-6.567,14.672-14.672
		c0-12.176-14.672-29.49-14.672-29.49S71.361,263.58,71.361,275.756z"/>
	<path d="M112.037,275.756c0,8.104,6.569,14.672,14.67,14.672c8.104,0,14.672-6.567,14.672-14.672
		c0-12.176-14.672-29.49-14.672-29.49S112.037,263.58,112.037,275.756z"/>
	<path d="M152.717,275.756c0,8.104,6.569,14.672,14.67,14.672c8.104,0,14.672-6.567,14.672-14.672
		c0-12.176-14.672-29.49-14.672-29.49S152.717,263.58,152.717,275.756z"/>
	<path d="M236.154,231.744c0-12.178-14.672-29.49-14.672-29.49s-14.67,17.313-14.67,29.49c0,8.102,6.569,14.672,14.67,14.672
		C229.585,246.416,236.154,239.846,236.154,231.744z"/>
	<path d="M276.834,231.744c0-12.178-14.672-29.49-14.672-29.49s-14.672,17.313-14.672,29.49c0,8.102,6.569,14.672,14.672,14.672
		C270.263,246.416,276.834,239.846,276.834,231.744z"/>
	<path d="M215.701,187.731c0-12.177-14.672-29.49-14.672-29.49s-14.668,17.314-14.668,29.49c0,8.104,6.565,14.671,14.668,14.671
		C209.132,202.402,215.701,195.834,215.701,187.731z"/>
	<path d="M256.379,187.731c0-12.177-14.672-29.49-14.672-29.49s-14.67,17.314-14.67,29.49c0,8.104,6.569,14.671,14.67,14.671
		C249.811,202.402,256.379,195.834,256.379,187.731z"/>
	<path d="M227.037,275.756c0,8.104,6.569,14.672,14.67,14.672c8.104,0,14.672-6.567,14.672-14.672
		c0-12.176-14.672-29.49-14.672-29.49S227.037,263.58,227.037,275.756z"/>
	<path d="M267.717,275.756c0,8.104,6.569,14.672,14.67,14.672c8.105,0,14.672-6.567,14.672-14.672
		c0-12.176-14.672-29.49-14.672-29.49S267.717,263.58,267.717,275.756z"/>
</g>
<g>
</g>
<g>
</g>
<g>
</g>
<g>
</g>
<g>
</g>
<g>
</g>
<g>
</g>
<g>
</g>
<g>
</g>
<g>
</g>
<g>
</g>
<g>
</g>
<g>
</g>
<g>
</g>
<g>
</g>
</svg>
